<?xml version="1.0" standalone="no"?>
<!DOCTYPE svg PUBLIC "-//W3C//DTD SVG 20010904//EN"
 "http://www.w3.org/TR/2001/REC-SVG-20010904/DTD/svg10.dtd">
<svg version="1.0" xmlns="http://www.w3.org/2000/svg"
 width="300.000000pt" height="410.000000pt" viewBox="0 0 300.000000 410.000000"
 preserveAspectRatio="xMidYMid meet">
<metadata>
Created by potrace 1.10, written by Peter Selinger 2001-2011
</metadata>
<g transform="translate(0.000000,410.000000) scale(0.100000,-0.100000)"
fill="#ffffff" stroke="none">
<path d="M1560 3963 c-25 -1 -82 -5 -127 -9 l-83 -6 -78 -106 c-66 -90 -272
-377 -350 -489 -16 -23 -21 -40 -16 -58 6 -25 7 -25 83 -19 42 3 82 7 89 9 6
3 12 -1 12 -8 0 -8 4 -7 10 3 5 8 7 24 4 36 -7 28 19 48 52 40 18 -5 24 -3 19
5 -4 6 -21 9 -37 7 -35 -6 -49 16 -25 39 18 18 52 10 62 -15 4 -9 9 -37 11
-62 4 -35 2 -42 -8 -32 -6 6 -18 12 -26 12 -9 0 -4 -8 12 -21 14 -11 26 -30
26 -42 0 -16 -3 -18 -12 -9 -22 22 -32 12 -10 -11 26 -27 32 -78 7 -57 -8 6
-20 10 -27 7 -9 -4 -7 -6 4 -6 24 -1 64 -54 72 -94 8 -42 -26 -156 -53 -181
-19 -17 -20 -17 -23 16 l-3 33 -15 -44 c-19 -56 -70 -97 -130 -106 l-45 -6 33
26 c27 22 62 72 62 89 0 2 -19 2 -42 0 -38 -4 -40 -3 -20 7 28 15 70 100 77
159 11 79 15 91 38 100 l22 9 -22 0 c-29 1 -53 -35 -53 -79 0 -78 -45 -169
-88 -180 -38 -8 -30 -24 17 -36 l43 -10 -28 -27 c-16 -15 -38 -33 -48 -40 -19
-14 -19 -15 3 -27 29 -15 100 1 145 33 17 12 39 27 50 32 28 14 72 82 87 132
14 53 7 137 -14 161 -15 16 -28 145 -16 157 3 2 81 7 175 11 l170 7 41 -50
c39 -45 41 -52 36 -94 -4 -33 -13 -50 -38 -71 -47 -39 -77 -117 -73 -186 3
-50 1 -57 -25 -76 -26 -19 -29 -20 -38 -4 -25 45 -78 104 -108 122 l-34 20
-49 -55 c-27 -30 -81 -98 -121 -153 -39 -54 -103 -136 -142 -181 -163 -193
-224 -263 -292 -334 -61 -64 -73 -82 -73 -111 -1 -23 -31 -95 -89 -210 l-88
-174 -35 75 c-20 42 -40 79 -45 82 -8 5 -91 -18 -101 -28 -2 -2 4 -15 13 -29
21 -31 10 -34 -21 -5 l-22 20 -35 -30 c-40 -36 -64 -89 -73 -164 -6 -52 -6
-52 27 -68 19 -9 55 -35 81 -59 l48 -41 -20 -39 c-26 -50 -25 -77 1 -85 18 -6
20 -13 17 -52 -3 -43 -1 -47 34 -69 30 -19 38 -31 38 -54 0 -30 22 -50 56 -50
10 0 39 -23 64 -50 48 -52 72 -60 124 -40 24 9 28 6 55 -41 31 -55 63 -149 82
-244 14 -75 60 -125 115 -125 19 0 34 2 34 4 0 2 -16 30 -35 62 -19 32 -35 65
-35 73 0 9 12 -5 27 -32 16 -28 36 -50 49 -53 15 -4 25 -16 29 -35 6 -24 -1
-42 -33 -92 -47 -71 -67 -141 -58 -192 10 -50 66 -108 123 -130 27 -9 102 -42
168 -73 148 -68 224 -79 300 -42 54 26 94 80 102 138 7 52 -23 109 -87 164
-32 27 -50 51 -50 65 0 13 -8 24 -21 28 -12 4 -30 16 -41 27 -15 15 -29 19
-54 15 -29 -5 -34 -3 -34 14 0 11 8 31 17 45 14 22 15 32 5 70 -7 24 -12 60
-12 79 l0 34 67 -2 67 -2 18 70 c10 39 21 106 24 150 8 127 8 125 58 125 l43
0 7 -56 c5 -47 3 -59 -14 -81 -16 -21 -19 -35 -15 -67 5 -33 1 -54 -24 -106
-51 -107 -38 -224 28 -260 12 -6 62 -26 113 -44 51 -19 125 -45 163 -60 130
-48 237 -29 289 52 53 82 38 156 -46 223 -28 21 -54 39 -59 39 -5 0 -9 8 -9
18 0 23 -19 42 -41 42 -9 0 -20 7 -23 16 -5 12 -16 15 -46 12 -42 -4 -48 0
-27 21 6 6 12 33 13 59 1 47 17 118 28 130 4 3 18 -5 31 -19 l24 -24 -36 -58
c-19 -32 -32 -61 -29 -65 13 -12 141 77 234 162 37 34 42 43 42 83 0 134 -79
296 -223 455 -56 62 -116 131 -134 154 -48 61 -108 180 -131 259 -23 79 -44
186 -38 193 9 9 66 -33 61 -45 -19 -47 -20 -46 14 -38 l33 7 -18 -27 c-11 -17
-17 -47 -18 -85 -1 -64 6 -79 27 -61 12 9 16 3 21 -37 4 -33 19 -67 44 -103
38 -54 72 -75 72 -44 0 10 10 4 31 -19 17 -20 59 -56 95 -81 35 -25 68 -55 74
-65 26 -49 40 0 20 70 -9 32 -4 28 78 -53 88 -87 173 -157 191 -157 27 0 60
189 61 355 1 64 2 68 15 51 8 -11 15 -29 15 -40 1 -45 43 -100 97 -125 40 -19
54 -31 58 -52 7 -32 70 -97 102 -105 11 -3 31 -1 42 6 22 11 81 124 81 153 0
9 14 32 30 50 32 37 38 74 18 108 -11 17 -10 22 5 33 23 17 22 39 -5 86 -20
33 -21 41 -9 63 16 31 8 58 -31 103 -37 42 -91 71 -146 80 -23 3 -50 15 -61
26 -22 19 -29 72 -12 83 23 13 53 125 61 223 14 171 -15 299 -93 415 l-32 49
-50 -6 c-63 -7 -87 -35 -110 -125 -26 -101 -25 -99 -34 -81 -5 8 -11 38 -14
65 -8 72 -25 104 -60 113 l-30 8 42 27 c40 27 46 47 14 47 -11 0 -7 6 11 21
26 20 66 87 66 110 0 6 -9 9 -20 6 -16 -4 -20 0 -20 19 0 36 -24 76 -66 113
-43 38 -58 30 -43 -22 18 -68 -21 -135 -65 -110 -8 4 -38 39 -67 77 -68 87
-114 114 -169 97 -22 -6 -56 -27 -76 -46 -20 -19 -38 -35 -40 -35 -10 0 -34
62 -28 73 27 47 257 335 347 435 30 34 38 49 35 75 l-3 32 -270 1 c-148 0
-290 -1 -315 -3z m541 -40 c-5 -10 -21 -29 -36 -43 -27 -25 -27 -25 -230 -25
-180 0 -202 -2 -191 -15 29 -34 27 -41 -26 -97 -29 -31 -63 -66 -75 -79 -28
-30 -59 -34 -41 -5 10 16 9 23 -6 40 -17 19 -17 20 4 31 12 7 35 10 51 8 21
-3 26 -1 19 7 -13 16 -2 25 31 25 42 0 55 31 25 59 -12 12 -26 18 -31 14 -4
-5 -5 -3 -1 4 3 6 2 14 -4 18 -5 3 -10 1 -10 -5 0 -8 -26 -11 -85 -9 -81 3
-86 2 -114 -25 -25 -24 -28 -34 -26 -76 3 -59 11 -73 38 -66 27 7 57 -10 57
-34 0 -28 -19 -34 -42 -13 -21 18 -21 18 -9 -5 10 -18 10 -27 0 -38 -15 -18
-29 -18 -29 1 0 8 -4 15 -10 15 -5 0 -7 -7 -4 -15 4 -8 3 -22 0 -31 -5 -14 -7
-14 -22 0 -8 9 -25 16 -37 16 -19 0 -18 2 10 30 16 16 40 33 52 38 l22 8 -21
27 c-12 15 -20 35 -19 44 1 10 -1 31 -6 46 -6 22 -3 33 14 51 22 23 22 23 2
29 -11 3 -22 0 -25 -7 -2 -6 -5 -7 -5 -1 -1 6 11 25 27 43 27 32 29 33 142 41
63 4 229 9 368 10 238 1 252 0 243 -16z m-575 -108 c20 -30 11 -58 -22 -73
-51 -24 -84 -6 -84 47 0 51 77 71 106 26z m-32 -128 c9 -15 7 -21 -9 -33 -18
-14 -20 -13 -23 5 -2 11 -12 23 -23 26 -31 10 -22 27 12 23 18 -2 37 -11 43
-21z m-168 -132 c4 -8 0 -22 -7 -31 -11 -14 -13 -14 -21 0 -5 9 -13 16 -19 16
-5 0 -4 -9 3 -19 9 -15 9 -23 -2 -35 -12 -15 -14 -15 -27 4 -8 11 -20 20 -26
20 -7 0 -4 -5 6 -11 19 -11 23 -54 7 -64 -6 -4 -18 2 -28 12 -9 10 -14 14 -9
9 9 -12 9 -50 1 -59 -4 -3 -18 3 -32 13 -13 11 -32 20 -40 20 -22 0 91 110
114 111 13 0 14 2 5 6 -11 5 -11 7 0 14 23 14 69 10 75 -6z m668 -156 c17 -12
42 -37 56 -57 40 -57 96 -112 114 -112 9 0 28 11 42 25 22 23 25 33 22 79 -3
48 -1 53 14 45 25 -13 27 -20 19 -66 -6 -31 -5 -43 5 -47 9 -3 12 6 10 35 -3
32 -1 37 10 28 25 -21 17 -72 -17 -107 -38 -39 -30 -40 28 -6 l44 26 -15 -30
c-22 -43 -73 -82 -107 -82 -44 0 -35 -17 13 -25 39 -7 40 -8 23 -21 -10 -8
-33 -14 -49 -14 -24 0 -36 8 -55 35 -13 20 -38 48 -56 63 -34 31 -51 53 -38
51 20 -3 37 2 28 9 -6 4 -31 36 -57 73 -25 36 -54 71 -62 79 -26 21 -74 14
-114 -16 -32 -24 -35 -25 -17 -4 28 32 76 60 104 60 14 0 39 -9 55 -21z m-42
-133 c9 0 15 -2 13 -4 -2 -3 14 -17 36 -32 67 -45 145 -126 171 -178 23 -46
26 -48 45 -35 29 19 57 4 72 -38 18 -52 13 -55 -28 -15 -38 37 -39 38 -51 17
-6 -12 -13 -36 -15 -55 l-4 -33 40 4 c34 4 44 0 69 -27 32 -34 47 -100 35
-147 -4 -16 -9 -41 -11 -56 -2 -16 -6 -33 -9 -38 -4 -5 -1 -9 5 -9 5 0 18 -15
26 -34 19 -38 13 -96 -11 -116 -23 -19 -59 -8 -73 23 -8 16 -16 26 -19 24 -12
-13 33 -71 75 -97 70 -42 82 -56 82 -94 0 -44 -29 -66 -87 -66 -53 0 -90 14
-128 48 l-30 27 23 -26 c28 -33 23 -46 -36 -86 -55 -36 -113 -54 -152 -47 -15
4 -30 2 -34 -4 -7 -12 -98 8 -141 31 -78 40 -127 132 -129 242 l-1 71 -50 0
c-29 -1 -66 7 -87 18 -49 24 -106 83 -117 121 -5 17 -10 23 -10 14 -1 -9 -11
-24 -23 -33 -13 -9 -17 -14 -10 -11 20 10 14 -33 -8 -55 -21 -21 -70 -28 -70
-9 0 6 5 20 11 32 10 21 9 21 -8 -1 -17 -21 -21 -22 -32 -8 -8 9 -10 16 -5 16
4 0 3 5 -4 12 -13 13 -17 92 -4 85 4 -3 7 13 7 34 1 44 9 55 47 64 19 5 31 1
45 -12 18 -19 19 -19 73 9 30 15 63 34 74 41 14 9 20 9 23 0 2 -7 15 -28 28
-47 l24 -36 -57 6 c-49 6 -60 3 -82 -16 l-25 -22 25 16 c13 9 38 16 55 16 39
0 120 -25 162 -50 19 -11 31 -15 27 -9 -3 6 -29 21 -56 34 -27 12 -49 25 -49
29 0 3 -13 34 -29 68 -49 102 -34 199 39 261 26 21 33 36 38 77 6 48 7 50 45
61 25 6 55 26 81 54 l41 43 66 -25 c36 -14 73 -26 82 -27z m268 -220 c0 -3 -4
-8 -10 -11 -5 -3 -10 -1 -10 4 0 6 5 11 10 11 6 0 10 -2 10 -4z m270 -1 c0 -3
-8 -18 -17 -33 -9 -15 -13 -24 -9 -20 17 14 63 -22 89 -70 29 -54 57 -157 57
-214 0 -30 3 -36 16 -31 13 5 15 -3 12 -48 -2 -43 -6 -54 -20 -53 -11 1 -20
-12 -28 -44 -11 -45 -44 -102 -59 -102 -9 0 -52 93 -71 153 -6 20 -17 74 -23
119 -11 72 -14 82 -34 83 -16 1 -23 -6 -27 -28 -13 -66 28 -225 85 -325 36
-63 33 -79 -4 -25 -65 94 -97 209 -97 348 0 146 32 258 80 282 26 13 50 17 50
8z m91 -100 c15 -33 30 -76 33 -95 4 -23 -2 -14 -18 28 -13 35 -38 86 -55 114
-17 27 -31 52 -31 56 1 17 45 -48 71 -103z m46 -157 c-3 -8 -6 -5 -6 6 -1 11
2 17 5 13 3 -3 4 -12 1 -19z m13 -28 c0 -5 -4 -10 -10 -10 -5 0 -10 5 -10 10
0 6 5 10 10 10 6 0 10 -4 10 -10z m-293 -137 c-4 -3 -7 0 -7 7 0 7 3 10 7 7 3
-4 3 -10 0 -14z m-1007 -85 c24 1 30 -3 30 -21 1 -57 45 -182 114 -320 41 -84
81 -174 87 -200 13 -54 7 -183 -9 -199 -8 -8 -7 -15 4 -25 8 -8 14 -23 14 -34
0 -24 -23 -71 -44 -88 -12 -10 -14 -9 -10 11 4 16 1 14 -9 -8 -8 -17 -22 -34
-31 -37 -12 -5 -15 0 -11 26 4 30 3 29 -7 -5 -11 -36 -38 -53 -38 -25 -3 133
-58 390 -152 708 -7 26 -7 42 1 56 8 15 7 44 -3 109 -12 77 -14 83 -17 44 -2
-40 -3 -41 -6 -12 -3 19 -2 41 2 49 5 14 9 12 30 -7 15 -14 36 -23 55 -22z
m1130 -173 c32 -33 40 -75 15 -75 -31 0 -65 23 -65 45 0 30 -33 69 -70 85 -16
7 -30 14 -30 16 0 2 11 14 25 28 14 14 25 33 25 43 0 10 16 -11 35 -47 19 -35
48 -78 65 -95z m-1196 53 c4 -17 2 -28 -4 -28 -5 0 -10 14 -10 32 0 36 4 35
14 -4z m1243 -75 c-4 -3 -7 0 -7 7 0 7 3 10 7 7 3 -4 3 -10 0 -14z m50 -40
c-4 -3 -7 0 -7 7 0 7 3 10 7 7 3 -4 3 -10 0 -14z m-108 -24 c31 -11 31 -12 31
-80 0 -38 7 -85 15 -104 14 -35 14 -35 -8 -24 -12 6 -5 -3 15 -20 33 -28 49
-61 72 -146 3 -11 4 -4 2 16 -3 29 -16 64 -44 123 -3 5 2 6 11 3 11 -4 23 5
37 29 12 19 35 41 50 49 l29 15 -16 52 c-8 29 -17 56 -20 61 -7 11 20 8 70 -9
26 -9 64 -33 87 -56 40 -41 50 -74 28 -96 -9 -9 -6 -23 12 -62 21 -44 22 -53
10 -75 -11 -21 -11 -32 -1 -61 11 -31 10 -37 -11 -63 -14 -15 -34 -55 -46 -88
-25 -67 -43 -80 -122 -85 -46 -3 -57 7 -74 64 -3 10 -29 29 -59 42 -55 24 -81
59 -89 118 -2 14 -23 47 -46 72 -29 31 -42 54 -42 74 0 32 -21 55 -64 71 -28
11 -28 12 -21 68 10 79 12 83 55 83 23 0 47 8 61 20 28 23 36 24 78 9z m-721
-63 c-10 -7 -15 -16 -11 -19 3 -4 -3 -7 -15 -7 -29 0 -28 6 6 24 34 19 43 20
20 2z m-19 -97 c-19 -49 -19 -51 -2 -44 50 20 54 16 17 -18 l-39 -36 -3 34
c-2 20 5 50 18 74 28 56 32 51 9 -10z m331 -14 c19 -20 19 -20 -23 -17 l-42 3
45 -23 c26 -13 53 -37 64 -57 l19 -34 -24 16 c-13 8 -35 18 -49 21 -25 7 -25
7 2 -11 37 -23 61 -75 66 -143 l4 -55 -52 58 c-28 31 -55 57 -59 57 -5 0 5
-53 20 -117 16 -65 29 -122 29 -127 0 -6 -15 4 -32 20 -18 17 -57 48 -86 68
-58 42 -82 79 -82 127 0 27 -2 30 -15 19 -8 -7 -15 -28 -15 -48 0 -34 0 -35
-20 -17 -52 47 -77 160 -45 201 15 18 16 17 14 -16 -3 -60 0 -85 15 -105 13
-18 14 -18 42 4 25 20 29 21 32 6 2 -10 10 -14 19 -11 8 3 21 6 30 6 8 0 41
25 73 56 34 32 61 51 65 45 3 -6 12 -11 18 -11 21 1 -36 39 -75 52 -30 9 -36
14 -27 25 6 7 23 13 38 13 l26 1 -30 25 -30 26 33 -18 c18 -11 42 -28 52 -39z
m-1095 -92 c10 -124 -1 -415 -19 -513 -18 -99 -49 -169 -93 -211 -26 -25 -34
-28 -28 -14 4 11 10 41 12 68 5 40 1 54 -22 89 -30 45 -45 121 -26 132 6 4 25
-16 46 -49 20 -30 40 -55 46 -55 8 0 9 25 4 79 -8 94 29 499 52 558 13 33 22
6 28 -84z m-525 -248 c45 -94 69 -134 78 -130 8 3 17 5 22 5 4 0 11 11 14 24
12 50 69 38 173 -37 41 -29 42 -30 36 -77 -5 -42 -1 -56 32 -117 l37 -68 -20
-58 -19 -58 54 -49 c65 -59 167 -120 241 -145 63 -20 112 -59 112 -88 0 -61
-108 -190 -185 -223 -53 -22 -105 -21 -121 2 -7 10 -17 24 -21 29 -4 6 -17 27
-28 48 l-20 39 55 51 c58 54 51 55 -15 1 -41 -34 -84 -94 -66 -94 6 0 15 -17
20 -37 6 -21 22 -55 36 -75 28 -41 21 -47 -26 -22 -35 18 -60 70 -78 164 -7
36 -32 107 -57 159 -36 77 -47 92 -61 86 -10 -4 -36 -9 -59 -12 -38 -5 -43 -2
-72 33 -18 21 -33 50 -33 64 -1 14 -3 18 -5 10 -4 -12 -14 -15 -39 -12 -30 4
-34 8 -37 35 -2 23 -13 38 -37 55 -32 21 -35 26 -32 67 2 35 -1 46 -18 55 -26
13 -26 35 -1 82 l19 37 -62 56 c-34 32 -72 61 -83 65 -20 8 -21 13 -13 57 5
26 14 62 20 80 11 34 68 90 78 76 3 -4 21 -18 39 -31 29 -20 32 -21 32 -5 0
10 -7 31 -15 46 -16 31 -16 31 56 46 3 0 34 -60 69 -134z m93 -65 c12 -10 -2
-52 -14 -45 -5 4 -16 20 -25 37 -15 29 -15 30 8 23 13 -4 27 -11 31 -15z
m1257 -804 c0 -2 -7 -7 -16 -10 -8 -3 -12 -2 -9 4 6 10 25 14 25 6z m64 -30
c-56 -25 -82 -28 -44 -7 19 11 44 20 55 20 15 0 12 -3 -11 -13z m-118 -47
c-48 -53 -56 -76 -31 -85 9 -4 34 14 68 50 29 31 57 56 63 56 5 0 -12 -23 -38
-51 -26 -28 -48 -58 -48 -65 0 -34 30 -22 83 30 75 76 114 74 208 -11 46 -41
50 -73 15 -108 -51 -50 -145 -46 -267 12 -46 23 -101 46 -121 53 -48 15 -88
62 -88 103 0 24 3 28 10 17 8 -13 10 -13 15 1 4 10 17 13 47 11 32 -3 45 0 55
14 11 16 13 16 13 1 0 -10 5 -14 15 -11 8 4 15 12 15 20 0 8 7 14 16 14 11 0
1 -17 -30 -51z m193 27 c-8 -8 -79 -35 -79 -30 0 6 60 33 74 34 5 0 7 -2 5 -4z
m-223 -262 c141 -46 219 -57 294 -42 l35 8 -35 -16 c-55 -26 -154 -14 -291 33
-138 49 -166 62 -199 99 -23 25 -22 25 16 -5 27 -21 86 -46 180 -77z m-484 11
c7 4 4 -1 -6 -9 -26 -21 -31 -20 -33 5 -2 16 1 18 12 9 8 -6 20 -9 27 -5z
m-95 -2 c-4 -3 -10 -3 -14 0 -3 4 0 7 7 7 7 0 10 -3 7 -7z m30 0 c-4 -3 -10
-3 -14 0 -3 4 0 7 7 7 7 0 10 -3 7 -7z m56 -38 c-12 -8 -29 -12 -38 -9 -12 5
-16 2 -13 -12 2 -13 -2 -18 -12 -16 -8 2 -12 0 -7 -4 4 -4 -5 -20 -20 -36 -25
-26 -26 -29 -10 -45 15 -15 19 -14 60 24 41 38 96 73 113 73 4 0 -11 -13 -32
-29 -21 -16 -52 -43 -69 -60 -27 -29 -28 -32 -13 -48 16 -15 21 -12 72 35 87
79 126 78 214 -8 57 -54 70 -89 43 -110 -11 -8 -23 -28 -27 -45 l-7 -30 22 19
c31 28 26 4 -6 -26 -50 -47 -148 -61 -239 -33 -72 22 -247 98 -297 129 -24 15
-49 37 -56 49 -11 19 -9 18 15 -4 30 -27 109 -70 154 -84 14 -4 48 -18 75 -30
93 -42 149 -57 214 -56 35 0 68 4 73 9 14 14 -42 50 -98 62 -26 6 -73 26 -103
45 -31 18 -85 47 -120 64 -76 36 -88 46 -107 83 -16 31 -12 64 9 66 59 4 123
15 139 23 10 6 27 7 38 4 10 -3 21 -1 25 5 3 5 11 10 18 10 6 0 2 -7 -10 -15z
m-193 1 c0 -3 -5 -8 -12 -12 -7 -4 -8 -3 -4 4 7 12 16 16 16 8z m270 -5 c-14
-4 -38 -11 -55 -14 l-30 -7 25 15 c14 8 39 14 55 14 29 -1 29 -1 5 -8z m69
-35 c-2 -2 -20 -6 -39 -10 -25 -4 -31 -3 -20 4 14 9 69 15 59 6z m-482 -113
c-4 -3 -7 0 -7 7 0 7 3 10 7 7 3 -4 3 -10 0 -14z"/>
<path d="M1993 3173 c9 -2 23 -2 30 0 6 3 -1 5 -18 5 -16 0 -22 -2 -12 -5z"/>
<path d="M1967 3129 c-9 -5 -24 -24 -32 -42 -14 -27 -14 -29 -1 -12 29 39 49
54 75 58 l26 4 -25 1 c-14 1 -33 -3 -43 -9z"/>
<path d="M1971 3089 c-19 -18 -51 -76 -51 -93 0 -3 45 -5 99 -4 82 0 101 3
106 16 3 9 3 13 -1 9 -4 -4 -15 6 -25 22 -35 58 -94 81 -128 50z"/>
<path d="M1599 3053 c-49 -52 -61 -93 -35 -119 8 -7 16 -19 19 -26 3 -9 12 -6
30 11 30 28 47 20 67 -29 10 -24 15 -28 27 -19 7 7 16 9 20 5 3 -3 16 2 27 11
21 18 21 18 4 -3 -26 -30 -23 -46 7 -38 18 5 25 2 25 -9 0 -17 24 -17 42 1 8
8 -2 23 -42 59 -29 26 -73 62 -98 79 -33 23 -49 42 -56 69 l-11 36 -26 -28z"/>
<path d="M1906 3023 c-4 -16 -9 -36 -12 -45 -4 -14 0 -18 23 -17 15 1 39 5 53
10 19 6 14 7 -19 4 l-44 -6 7 41 c7 45 2 54 -8 13z"/>
<path d="M2255 2980 c10 -11 20 -20 22 -20 2 0 -1 9 -7 20 -6 11 -16 20 -22
20 -6 0 -3 -9 7 -20z"/>
<path d="M2180 2980 c0 -7 3 -10 7 -7 3 4 3 10 0 14 -4 3 -7 0 -7 -7z"/>
<path d="M2058 2973 c7 -3 16 -2 19 1 4 3 -2 6 -13 5 -11 0 -14 -3 -6 -6z"/>
<path d="M2090 2966 c0 -2 7 -7 16 -10 8 -3 12 -2 9 4 -6 10 -25 14 -25 6z"/>
<path d="M2073 2923 c9 -2 25 -2 35 0 9 3 1 5 -18 5 -19 0 -27 -2 -17 -5z"/>
<path d="M1989 2881 c-22 -21 -39 -45 -39 -52 0 -8 9 1 20 19 11 18 34 41 52
52 18 11 27 20 19 20 -7 0 -31 -17 -52 -39z"/>
<path d="M1630 2820 c0 -16 -4 -30 -10 -30 -5 0 -10 -5 -10 -11 0 -6 6 -7 12
-2 7 4 21 7 30 8 19 0 20 9 5 43 -14 31 -27 28 -27 -8z"/>
<path d="M1696 2804 c-8 -20 0 -32 14 -18 5 5 5 15 1 22 -6 11 -10 10 -15 -4z"/>
<path d="M1940 2800 c0 -7 3 -10 7 -7 3 4 3 10 0 14 -4 3 -7 0 -7 -7z"/>
<path d="M2270 2770 c-12 -23 4 -64 23 -57 16 5 22 47 7 47 -7 0 -10 7 -6 15
8 22 -12 18 -24 -5z"/>
<path d="M2140 2766 c-17 -21 -9 -60 14 -64 21 -4 36 13 36 42 0 16 -2 17 -17
5 -15 -13 -16 -12 -11 9 7 25 -4 29 -22 8z"/>
<path d="M1634 2758 c-4 -7 -3 -8 4 -4 12 7 16 16 8 16 -3 0 -8 -5 -12 -12z"/>
<path d="M1830 2692 c64 -60 65 -61 50 -88 -8 -15 -35 -38 -59 -51 -24 -13
-38 -23 -30 -23 41 0 117 74 106 103 -3 7 -34 37 -68 66 l-64 53 65 -60z"/>
<path d="M1351 2643 c-1 -12 4 -25 9 -28 12 -7 12 2 0 30 -8 19 -9 19 -9 -2z"/>
<path d="M1935 2650 c27 -12 43 -12 25 0 -8 5 -22 9 -30 9 -10 0 -8 -3 5 -9z"/>
<path d="M1289 2633 c-13 -16 -12 -17 4 -4 9 7 17 15 17 17 0 8 -8 3 -21 -13z"/>
<path d="M2175 2639 c-4 -6 -5 -12 -2 -15 2 -3 7 2 10 11 7 17 1 20 -8 4z"/>
<path d="M1983 2633 c4 -3 10 -3 14 0 3 4 0 7 -7 7 -7 0 -10 -3 -7 -7z"/>
<path d="M1560 2620 c8 -5 25 -10 37 -10 15 0 21 -5 17 -14 -3 -8 -1 -23 5
-33 9 -15 10 -13 5 10 -7 30 4 34 38 16 14 -8 18 -8 14 0 -4 6 -30 17 -58 26
-59 17 -80 19 -58 5z"/>
<path d="M2087 2621 l41 -6 -18 -22 c-10 -13 -26 -23 -37 -24 -16 0 -16 -1 2
-9 19 -7 18 -9 -8 -19 -16 -6 -32 -11 -37 -11 -5 0 -12 -4 -15 -10 -3 -5 12
-3 35 5 35 12 40 12 40 -1 0 -22 29 -74 41 -74 6 0 1 12 -10 26 -29 37 -27 89
3 119 13 13 21 26 18 29 -3 3 -26 5 -51 4 l-46 -1 42 -6z"/>
<path d="M1505 2610 c-3 -6 1 -7 9 -4 18 7 21 14 7 14 -6 0 -13 -4 -16 -10z"/>
<path d="M2258 2601 c-16 -19 -14 -31 4 -31 5 0 7 4 3 9 -3 5 2 17 11 25 8 9
12 16 7 16 -5 0 -16 -9 -25 -19z"/>
<path d="M1380 2600 c0 -7 3 -10 7 -7 3 4 3 10 0 14 -4 3 -7 0 -7 -7z"/>
<path d="M2221 2564 c0 -11 3 -14 6 -6 3 7 2 16 -1 19 -3 4 -6 -2 -5 -13z"/>
<path d="M1765 2559 c-4 -6 -5 -12 -2 -15 2 -3 7 2 10 11 7 17 1 20 -8 4z"/>
<path d="M2033 2553 c4 -3 10 -3 14 0 3 4 0 7 -7 7 -7 0 -10 -3 -7 -7z"/>
<path d="M2243 2553 c4 -3 10 -3 14 0 3 4 0 7 -7 7 -7 0 -10 -3 -7 -7z"/>
<path d="M1806 2419 c-25 -22 -46 -46 -46 -52 0 -6 13 1 28 16 l29 27 11 -25
c7 -14 12 -49 13 -78 1 -47 2 -49 10 -22 9 30 -4 99 -22 121 -7 8 -1 19 18 33
15 11 23 21 17 21 -6 0 -32 -18 -58 -41z"/>
<path d="M2163 2443 c4 -3 10 -3 14 0 3 4 0 7 -7 7 -7 0 -10 -3 -7 -7z"/>
<path d="M2053 2233 c4 -3 10 -3 14 0 3 4 0 7 -7 7 -7 0 -10 -3 -7 -7z"/>
<path d="M1973 2223 c15 -2 37 -2 50 0 12 2 0 4 -28 4 -27 0 -38 -2 -22 -4z"/>
<path d="M1921 2199 c8 -5 34 -8 59 -8 53 1 44 6 -24 12 -30 3 -43 1 -35 -4z"/>
<path d="M2450 2960 c0 -7 3 -10 7 -7 3 4 3 10 0 14 -4 3 -7 0 -7 -7z"/>
<path d="M2611 2624 c0 -11 3 -14 6 -6 3 7 2 16 -1 19 -3 4 -6 -2 -5 -13z"/>
<path d="M1290 2360 c0 -7 3 -10 7 -7 3 4 3 10 0 14 -4 3 -7 0 -7 -7z"/>
<path d="M2424 2231 c-41 -25 -73 -71 -79 -113 -5 -30 -4 -30 4 -6 17 49 44
85 84 112 47 30 38 36 -9 7z"/>
<path d="M2477 1933 c-4 -3 -7 -18 -8 -32 0 -14 -3 -20 -6 -13 -2 6 -9 12 -13
12 -5 0 -1 -13 8 -30 12 -20 20 -26 27 -18 7 7 6 12 -1 15 -8 3 -9 15 -4 38 8
36 8 39 -3 28z"/>
<path d="M2530 1920 c11 -11 20 -25 20 -32 0 -6 3 -8 6 -5 8 8 -23 57 -36 57
-6 0 -1 -9 10 -20z"/>
<path d="M2658 1924 c-16 -8 -28 -21 -28 -29 0 -9 -10 -15 -24 -15 -14 0 -27
-4 -30 -8 -2 -4 11 -6 30 -4 19 2 34 9 34 15 0 6 12 21 28 34 31 26 28 28 -10
7z"/>
<path d="M2731 1844 c-19 -14 -46 -27 -60 -31 -28 -7 -74 -33 -68 -39 6 -7
142 63 156 80 18 21 13 19 -28 -10z"/>
<path d="M2573 1783 c4 -3 10 -3 14 0 3 4 0 7 -7 7 -7 0 -10 -3 -7 -7z"/>
<path d="M2735 1751 c-3 -5 -20 -13 -38 -17 -17 -3 -41 -13 -52 -22 -20 -14
-20 -14 0 -7 11 4 34 12 50 18 36 12 74 37 58 37 -7 0 -14 -4 -18 -9z"/>
<path d="M2603 1713 c4 -3 10 -3 14 0 3 4 0 7 -7 7 -7 0 -10 -3 -7 -7z"/>
<path d="M1996 1981 c-9 -9 -16 -20 -16 -22 0 -4 26 -4 63 0 14 2 7 20 -12 30
-14 8 -22 6 -35 -8z"/>
<path d="M681 1304 c-18 -14 -36 -36 -42 -48 -6 -13 -2 -10 12 8 12 15 36 37
53 47 17 10 26 19 19 19 -6 0 -25 -12 -42 -26z"/>
<path d="M586 1164 c-4 -9 -4 -19 -1 -22 2 -3 7 3 11 12 4 9 4 19 1 22 -2 3
-7 -3 -11 -12z"/>
<path d="M925 1060 c3 -5 8 -10 11 -10 3 0 2 5 -1 10 -3 6 -8 10 -11 10 -3 0
-2 -4 1 -10z"/>
<path d="M955 1050 c-3 -5 6 -17 20 -26 13 -9 22 -21 18 -27 -4 -6 -1 -7 7 -2
10 6 6 14 -15 31 -25 20 -26 22 -9 27 16 4 16 5 2 6 -9 0 -19 -3 -23 -9z"/>
<path d="M1013 1043 c4 -3 10 -3 14 0 3 4 0 7 -7 7 -7 0 -10 -3 -7 -7z"/>
<path d="M1047 1029 c7 -7 15 -10 18 -7 3 3 -2 9 -12 12 -14 6 -15 5 -6 -5z"/>
<path d="M980 968 c14 -11 35 -28 46 -37 12 -10 24 -26 27 -37 4 -17 5 -17 6
2 1 14 -12 32 -36 50 -21 15 -39 32 -41 36 -2 4 -9 8 -15 8 -7 -1 -1 -10 13
-22z"/>
<path d="M955 900 c-3 -6 1 -7 9 -4 18 7 21 14 7 14 -6 0 -13 -4 -16 -10z"/>
<path d="M905 860 c-16 -16 -27 -31 -24 -33 2 -2 17 11 32 30 36 41 31 43 -8
3z"/>
<path d="M770 800 c0 -7 3 -10 7 -7 3 4 3 10 0 14 -4 3 -7 0 -7 -7z"/>
<path d="M1400 262 c0 -5 12 -19 27 -33 21 -19 25 -20 20 -6 -4 10 -7 25 -7
33 0 8 -9 14 -20 14 -11 0 -20 -4 -20 -8z"/>
</g>
</svg>
